<mxfile host="Electron" agent="Mozilla/5.0 (Windows NT 10.0; Win64; x64) AppleWebKit/537.36 (KHTML, like Gecko) draw.io/27.0.9 Chrome/134.0.6998.205 Electron/35.4.0 Safari/537.36" version="27.0.9">
  <diagram name="Page-1" id="sNpChoj5HdwILYZ4xnra">
    <mxGraphModel dx="786" dy="516" grid="1" gridSize="10" guides="1" tooltips="1" connect="1" arrows="1" fold="1" page="1" pageScale="1" pageWidth="827" pageHeight="1169" math="0" shadow="0">
      <root>
        <mxCell id="0" />
        <mxCell id="1" parent="0" />
        <mxCell id="FnqgCdXboS-eBm2V_i5y-32" value="" style="rounded=1;whiteSpace=wrap;html=1;fillColor=none;dashed=1;" parent="1" vertex="1">
          <mxGeometry x="530" y="120" width="400" height="370" as="geometry" />
        </mxCell>
        <mxCell id="FnqgCdXboS-eBm2V_i5y-31" value="" style="rounded=1;whiteSpace=wrap;html=1;fillColor=none;dashed=1;" parent="1" vertex="1">
          <mxGeometry x="40" y="120" width="470" height="370" as="geometry" />
        </mxCell>
        <mxCell id="FnqgCdXboS-eBm2V_i5y-1" value="crm_cust_info" style="swimlane;fontStyle=0;childLayout=stackLayout;horizontal=1;startSize=30;horizontalStack=0;resizeParent=1;resizeParentMax=0;resizeLast=0;collapsible=1;marginBottom=0;whiteSpace=wrap;html=1;rounded=1;fillColor=#dae8fc;strokeColor=#6c8ebf;" parent="1" vertex="1">
          <mxGeometry x="329" y="348" width="140" height="70" as="geometry" />
        </mxCell>
        <mxCell id="FnqgCdXboS-eBm2V_i5y-2" value="cst_id&lt;div&gt;cst_key&lt;/div&gt;" style="text;strokeColor=none;fillColor=none;align=left;verticalAlign=middle;spacingLeft=4;spacingRight=4;overflow=hidden;points=[[0,0.5],[1,0.5]];portConstraint=eastwest;rotatable=0;whiteSpace=wrap;html=1;" parent="FnqgCdXboS-eBm2V_i5y-1" vertex="1">
          <mxGeometry y="30" width="140" height="40" as="geometry" />
        </mxCell>
        <mxCell id="FnqgCdXboS-eBm2V_i5y-5" value="Customer Information" style="rounded=1;whiteSpace=wrap;html=1;fillColor=none;dashed=1;fontStyle=1;strokeColor=none;" parent="1" vertex="1">
          <mxGeometry x="334" y="318" width="130" height="30" as="geometry" />
        </mxCell>
        <mxCell id="FnqgCdXboS-eBm2V_i5y-6" value="crm_prd_info" style="swimlane;fontStyle=0;childLayout=stackLayout;horizontal=1;startSize=30;horizontalStack=0;resizeParent=1;resizeParentMax=0;resizeLast=0;collapsible=1;marginBottom=0;whiteSpace=wrap;html=1;rounded=1;fillColor=#dae8fc;strokeColor=#6c8ebf;" parent="1" vertex="1">
          <mxGeometry x="327.5" y="170" width="140" height="56" as="geometry" />
        </mxCell>
        <mxCell id="FnqgCdXboS-eBm2V_i5y-7" value="prd_key" style="text;strokeColor=none;fillColor=none;align=left;verticalAlign=middle;spacingLeft=4;spacingRight=4;overflow=hidden;points=[[0,0.5],[1,0.5]];portConstraint=eastwest;rotatable=0;whiteSpace=wrap;html=1;" parent="FnqgCdXboS-eBm2V_i5y-6" vertex="1">
          <mxGeometry y="30" width="140" height="26" as="geometry" />
        </mxCell>
        <mxCell id="FnqgCdXboS-eBm2V_i5y-8" value="Current &amp;amp; History Prod Info" style="rounded=1;whiteSpace=wrap;html=1;fillColor=none;dashed=1;fontStyle=1;strokeColor=none;" parent="1" vertex="1">
          <mxGeometry x="315" y="140" width="165" height="30" as="geometry" />
        </mxCell>
        <mxCell id="FnqgCdXboS-eBm2V_i5y-9" value="crm_sales_details" style="swimlane;fontStyle=0;childLayout=stackLayout;horizontal=1;startSize=30;horizontalStack=0;resizeParent=1;resizeParentMax=0;resizeLast=0;collapsible=1;marginBottom=0;whiteSpace=wrap;html=1;rounded=1;fillColor=#dae8fc;strokeColor=#6c8ebf;" parent="1" vertex="1">
          <mxGeometry x="52.5" y="240" width="140" height="102" as="geometry" />
        </mxCell>
        <mxCell id="FnqgCdXboS-eBm2V_i5y-10" value="prd_key" style="text;strokeColor=none;fillColor=none;align=left;verticalAlign=middle;spacingLeft=4;spacingRight=4;overflow=hidden;points=[[0,0.5],[1,0.5]];portConstraint=eastwest;rotatable=0;whiteSpace=wrap;html=1;" parent="FnqgCdXboS-eBm2V_i5y-9" vertex="1">
          <mxGeometry y="30" width="140" height="26" as="geometry" />
        </mxCell>
        <mxCell id="FnqgCdXboS-eBm2V_i5y-12" value="cst_id" style="text;strokeColor=none;fillColor=none;align=left;verticalAlign=middle;spacingLeft=4;spacingRight=4;overflow=hidden;points=[[0,0.5],[1,0.5]];portConstraint=eastwest;rotatable=0;whiteSpace=wrap;html=1;" parent="FnqgCdXboS-eBm2V_i5y-9" vertex="1">
          <mxGeometry y="56" width="140" height="26" as="geometry" />
        </mxCell>
        <mxCell id="lbYhWnL5f-t8Sz1tRd2K-3" value="&lt;b&gt;Sales&lt;/b&gt;" style="text;html=1;strokeColor=#9673a6;fillColor=#e1d5e7;align=center;verticalAlign=middle;whiteSpace=wrap;overflow=hidden;" vertex="1" parent="FnqgCdXboS-eBm2V_i5y-9">
          <mxGeometry y="82" width="140" height="20" as="geometry" />
        </mxCell>
        <mxCell id="FnqgCdXboS-eBm2V_i5y-11" value="Transactional Data for Sales &amp;amp; Orders" style="rounded=1;whiteSpace=wrap;html=1;fillColor=none;dashed=1;fontStyle=1;strokeColor=none;" parent="1" vertex="1">
          <mxGeometry x="40" y="210" width="165" height="30" as="geometry" />
        </mxCell>
        <mxCell id="FnqgCdXboS-eBm2V_i5y-13" style="edgeStyle=orthogonalEdgeStyle;rounded=0;orthogonalLoop=1;jettySize=auto;html=1;" parent="1" source="FnqgCdXboS-eBm2V_i5y-12" target="FnqgCdXboS-eBm2V_i5y-2" edge="1">
          <mxGeometry relative="1" as="geometry">
            <Array as="points">
              <mxPoint x="260" y="309" />
              <mxPoint x="260" y="398" />
            </Array>
          </mxGeometry>
        </mxCell>
        <mxCell id="FnqgCdXboS-eBm2V_i5y-15" style="edgeStyle=orthogonalEdgeStyle;rounded=0;orthogonalLoop=1;jettySize=auto;html=1;entryX=0;entryY=0.5;entryDx=0;entryDy=0;" parent="1" source="FnqgCdXboS-eBm2V_i5y-10" target="FnqgCdXboS-eBm2V_i5y-7" edge="1">
          <mxGeometry relative="1" as="geometry" />
        </mxCell>
        <mxCell id="FnqgCdXboS-eBm2V_i5y-16" value="erp_cust_az12" style="swimlane;fontStyle=0;childLayout=stackLayout;horizontal=1;startSize=30;horizontalStack=0;resizeParent=1;resizeParentMax=0;resizeLast=0;collapsible=1;marginBottom=0;whiteSpace=wrap;html=1;rounded=1;fillColor=#fff2cc;strokeColor=#d6b656;" parent="1" vertex="1">
          <mxGeometry x="628.5" y="284" width="140" height="56" as="geometry" />
        </mxCell>
        <mxCell id="FnqgCdXboS-eBm2V_i5y-17" value="cid" style="text;strokeColor=none;fillColor=none;align=left;verticalAlign=middle;spacingLeft=4;spacingRight=4;overflow=hidden;points=[[0,0.5],[1,0.5]];portConstraint=eastwest;rotatable=0;whiteSpace=wrap;html=1;" parent="FnqgCdXboS-eBm2V_i5y-16" vertex="1">
          <mxGeometry y="30" width="140" height="26" as="geometry" />
        </mxCell>
        <mxCell id="FnqgCdXboS-eBm2V_i5y-18" value="Extra Customer Info (Birthday)" style="rounded=1;whiteSpace=wrap;html=1;fillColor=none;dashed=1;fontStyle=1;strokeColor=none;" parent="1" vertex="1">
          <mxGeometry x="606" y="254" width="185" height="30" as="geometry" />
        </mxCell>
        <mxCell id="FnqgCdXboS-eBm2V_i5y-19" style="edgeStyle=orthogonalEdgeStyle;rounded=0;orthogonalLoop=1;jettySize=auto;html=1;" parent="1" source="FnqgCdXboS-eBm2V_i5y-2" target="FnqgCdXboS-eBm2V_i5y-17" edge="1">
          <mxGeometry relative="1" as="geometry" />
        </mxCell>
        <mxCell id="FnqgCdXboS-eBm2V_i5y-20" value="erp_loc_a101" style="swimlane;fontStyle=0;childLayout=stackLayout;horizontal=1;startSize=30;horizontalStack=0;resizeParent=1;resizeParentMax=0;resizeLast=0;collapsible=1;marginBottom=0;whiteSpace=wrap;html=1;rounded=1;fillColor=#fff2cc;strokeColor=#d6b656;" parent="1" vertex="1">
          <mxGeometry x="628.5" y="414" width="140" height="56" as="geometry" />
        </mxCell>
        <mxCell id="FnqgCdXboS-eBm2V_i5y-21" value="cid" style="text;strokeColor=none;fillColor=none;align=left;verticalAlign=middle;spacingLeft=4;spacingRight=4;overflow=hidden;points=[[0,0.5],[1,0.5]];portConstraint=eastwest;rotatable=0;whiteSpace=wrap;html=1;" parent="FnqgCdXboS-eBm2V_i5y-20" vertex="1">
          <mxGeometry y="30" width="140" height="26" as="geometry" />
        </mxCell>
        <mxCell id="FnqgCdXboS-eBm2V_i5y-22" value="Extra Customer Info (Country)" style="rounded=1;whiteSpace=wrap;html=1;fillColor=none;dashed=1;fontStyle=1;strokeColor=none;" parent="1" vertex="1">
          <mxGeometry x="606" y="384" width="185" height="30" as="geometry" />
        </mxCell>
        <mxCell id="FnqgCdXboS-eBm2V_i5y-23" style="edgeStyle=orthogonalEdgeStyle;rounded=0;orthogonalLoop=1;jettySize=auto;html=1;entryX=0;entryY=0.5;entryDx=0;entryDy=0;" parent="1" source="FnqgCdXboS-eBm2V_i5y-2" target="FnqgCdXboS-eBm2V_i5y-21" edge="1">
          <mxGeometry relative="1" as="geometry" />
        </mxCell>
        <mxCell id="FnqgCdXboS-eBm2V_i5y-24" value="erp_px_cat_g1v2" style="swimlane;fontStyle=0;childLayout=stackLayout;horizontal=1;startSize=30;horizontalStack=0;resizeParent=1;resizeParentMax=0;resizeLast=0;collapsible=1;marginBottom=0;whiteSpace=wrap;html=1;rounded=1;fillColor=#fff2cc;strokeColor=#d6b656;" parent="1" vertex="1">
          <mxGeometry x="628.5" y="170" width="140" height="56" as="geometry" />
        </mxCell>
        <mxCell id="FnqgCdXboS-eBm2V_i5y-25" value="id" style="text;strokeColor=none;fillColor=none;align=left;verticalAlign=middle;spacingLeft=4;spacingRight=4;overflow=hidden;points=[[0,0.5],[1,0.5]];portConstraint=eastwest;rotatable=0;whiteSpace=wrap;html=1;" parent="FnqgCdXboS-eBm2V_i5y-24" vertex="1">
          <mxGeometry y="30" width="140" height="26" as="geometry" />
        </mxCell>
        <mxCell id="FnqgCdXboS-eBm2V_i5y-26" value="Product Category" style="rounded=1;whiteSpace=wrap;html=1;fillColor=none;dashed=1;fontStyle=1;strokeColor=none;" parent="1" vertex="1">
          <mxGeometry x="606" y="140" width="185" height="30" as="geometry" />
        </mxCell>
        <mxCell id="FnqgCdXboS-eBm2V_i5y-27" style="edgeStyle=orthogonalEdgeStyle;rounded=0;orthogonalLoop=1;jettySize=auto;html=1;entryX=1;entryY=0.5;entryDx=0;entryDy=0;" parent="1" source="FnqgCdXboS-eBm2V_i5y-25" target="FnqgCdXboS-eBm2V_i5y-7" edge="1">
          <mxGeometry relative="1" as="geometry">
            <mxPoint x="470" y="220" as="targetPoint" />
          </mxGeometry>
        </mxCell>
        <mxCell id="FnqgCdXboS-eBm2V_i5y-33" value="&lt;h1&gt;CRM&lt;/h1&gt;" style="rounded=1;whiteSpace=wrap;html=1;fillColor=#dae8fc;strokeColor=#6c8ebf;" parent="1" vertex="1">
          <mxGeometry x="170" y="90" width="170" height="50" as="geometry" />
        </mxCell>
        <mxCell id="FnqgCdXboS-eBm2V_i5y-34" value="&lt;h1&gt;ERP&lt;/h1&gt;" style="rounded=1;whiteSpace=wrap;html=1;fillColor=#dae8fc;strokeColor=#6c8ebf;" parent="1" vertex="1">
          <mxGeometry x="635" y="90" width="170" height="50" as="geometry" />
        </mxCell>
        <mxCell id="lbYhWnL5f-t8Sz1tRd2K-1" value="&lt;b&gt;Product&lt;/b&gt;" style="text;html=1;strokeColor=#b85450;fillColor=#f8cecc;align=center;verticalAlign=middle;whiteSpace=wrap;overflow=hidden;" vertex="1" parent="1">
          <mxGeometry x="326.5" y="226" width="137.5" height="20" as="geometry" />
        </mxCell>
        <mxCell id="lbYhWnL5f-t8Sz1tRd2K-2" value="&lt;b&gt;Product&lt;/b&gt;" style="text;html=1;strokeColor=#b85450;fillColor=#f8cecc;align=center;verticalAlign=middle;whiteSpace=wrap;overflow=hidden;" vertex="1" parent="1">
          <mxGeometry x="628.5" y="226" width="137.5" height="20" as="geometry" />
        </mxCell>
        <mxCell id="lbYhWnL5f-t8Sz1tRd2K-4" value="&lt;b&gt;Customer&lt;/b&gt;" style="text;html=1;strokeColor=#82b366;fillColor=#d5e8d4;align=center;verticalAlign=middle;whiteSpace=wrap;overflow=hidden;" vertex="1" parent="1">
          <mxGeometry x="327.5" y="414" width="140" height="20" as="geometry" />
        </mxCell>
        <mxCell id="lbYhWnL5f-t8Sz1tRd2K-5" value="&lt;b&gt;Customer&lt;/b&gt;" style="text;html=1;strokeColor=#82b366;fillColor=#d5e8d4;align=center;verticalAlign=middle;whiteSpace=wrap;overflow=hidden;" vertex="1" parent="1">
          <mxGeometry x="628.5" y="470" width="140" height="20" as="geometry" />
        </mxCell>
        <mxCell id="lbYhWnL5f-t8Sz1tRd2K-6" value="&lt;b&gt;Customer&lt;/b&gt;" style="text;html=1;strokeColor=#82b366;fillColor=#d5e8d4;align=center;verticalAlign=middle;whiteSpace=wrap;overflow=hidden;" vertex="1" parent="1">
          <mxGeometry x="628.5" y="340" width="140" height="20" as="geometry" />
        </mxCell>
      </root>
    </mxGraphModel>
  </diagram>
</mxfile>
